<svg width="178" height="21" viewBox="0 0 178 21" fill="none" xmlns="http://www.w3.org/2000/svg">
<path d="M7.862 16.168C6.742 16.168 5.706 15.986 4.754 15.622C3.816 15.244 2.997 14.719 2.297 14.047C1.611 13.361 1.072 12.563 0.68 11.653C0.288 10.743 0.092 9.742 0.092 8.65C0.092 7.558 0.288 6.557 0.68 5.647C1.072 4.737 1.618 3.946 2.318 3.274C3.018 2.588 3.837 2.063 4.775 1.699C5.727 1.321 6.763 1.132 7.883 1.132C9.017 1.132 10.06 1.328 11.012 1.72C11.978 2.098 12.797 2.665 13.469 3.421L12.104 4.744C11.544 4.156 10.914 3.722 10.214 3.442C9.514 3.148 8.765 3.001 7.967 3.001C7.141 3.001 6.371 3.141 5.657 3.421C4.957 3.701 4.348 4.093 3.83 4.597C3.312 5.101 2.906 5.703 2.612 6.403C2.332 7.089 2.192 7.838 2.192 8.65C2.192 9.462 2.332 10.218 2.612 10.918C2.906 11.604 3.312 12.199 3.83 12.703C4.348 13.207 4.957 13.599 5.657 13.879C6.371 14.159 7.141 14.299 7.967 14.299C8.765 14.299 9.514 14.159 10.214 13.879C10.914 13.585 11.544 13.137 12.104 12.535L13.469 13.858C12.797 14.614 11.978 15.188 11.012 15.58C10.06 15.972 9.01 16.168 7.862 16.168ZM13.6861 15.979L13.8121 14.278C13.9101 14.292 14.0011 14.306 14.0851 14.32C14.1691 14.334 14.2461 14.341 14.3161 14.341C14.7641 14.341 15.1141 14.187 15.3661 13.879C15.6321 13.571 15.8281 13.165 15.9541 12.661C16.0801 12.143 16.1711 11.562 16.2271 10.918C16.2831 10.274 16.3251 9.63 16.3531 8.986L16.5421 4.87H25.0891V16H23.0731V6.046L23.5561 6.634H17.8441L18.3061 6.025L18.1591 9.112C18.1171 10.092 18.0401 11.009 17.9281 11.863C17.8161 12.717 17.6411 13.466 17.4031 14.11C17.1791 14.754 16.8641 15.258 16.4581 15.622C16.0661 15.986 15.5551 16.168 14.9251 16.168C14.7431 16.168 14.5471 16.147 14.3371 16.105C14.1411 16.077 13.9241 16.035 13.6861 15.979ZM35.8122 16V13.648L35.7072 13.207V9.196C35.7072 8.342 35.4552 7.684 34.9512 7.222C34.4612 6.746 33.7192 6.508 32.7252 6.508C32.0672 6.508 31.4232 6.62 30.7932 6.844C30.1632 7.054 29.6312 7.341 29.1972 7.705L28.3572 6.193C28.9312 5.731 29.6172 5.381 30.4152 5.143C31.2272 4.891 32.0742 4.765 32.9562 4.765C34.4822 4.765 35.6582 5.136 36.4842 5.878C37.3102 6.62 37.7232 7.754 37.7232 9.28V16H35.8122ZM32.1582 16.126C31.3322 16.126 30.6042 15.986 29.9742 15.706C29.3582 15.426 28.8822 15.041 28.5462 14.551C28.2102 14.047 28.0422 13.48 28.0422 12.85C28.0422 12.248 28.1822 11.702 28.4622 11.212C28.7562 10.722 29.2252 10.33 29.8692 10.036C30.5272 9.742 31.4092 9.595 32.5152 9.595H36.0432V11.044H32.5992C31.5912 11.044 30.9122 11.212 30.5622 11.548C30.2122 11.884 30.0372 12.29 30.0372 12.766C30.0372 13.312 30.2542 13.753 30.6882 14.089C31.1222 14.411 31.7242 14.572 32.4942 14.572C33.2502 14.572 33.9082 14.404 34.4682 14.068C35.0422 13.732 35.4552 13.242 35.7072 12.598L36.1062 13.984C35.8402 14.642 35.3712 15.167 34.6992 15.559C34.0272 15.937 33.1802 16.126 32.1582 16.126ZM48.9554 15.055V6.634H44.1254L44.0204 8.776C43.9924 9.476 43.9434 10.155 43.8734 10.813C43.8174 11.457 43.7194 12.052 43.5794 12.598C43.4534 13.144 43.2644 13.592 43.0124 13.942C42.7604 14.292 42.4244 14.509 42.0044 14.593L40.0094 14.236C40.4434 14.25 40.7934 14.11 41.0594 13.816C41.3254 13.508 41.5284 13.088 41.6684 12.556C41.8224 12.024 41.9344 11.422 42.0044 10.75C42.0744 10.064 42.1304 9.357 42.1724 8.629L42.3404 4.87H50.9714V15.055H48.9554ZM39.5684 18.583V14.236H52.6724V18.583H50.7824V16H41.4794V18.583H39.5684ZM63.3627 16L59.0577 10.582L60.7167 9.574L65.7357 16H63.3627ZM55.2987 16V4.87H57.3147V16H55.2987ZM56.7057 11.296V9.574H60.3807V11.296H56.7057ZM60.8847 10.666L59.0157 10.414L63.2787 4.87H65.4417L60.8847 10.666ZM67.8495 16V4.87H69.8655V12.976L76.6905 4.87H78.5175V16H76.5015V7.894L69.6975 16H67.8495ZM82.4305 16V4.87H84.4465V12.976L91.2715 4.87H93.0985V16H91.0825V7.894L84.2785 16H82.4305ZM87.6385 3.421C86.6165 3.421 85.8115 3.176 85.2235 2.686C84.6495 2.182 84.3555 1.461 84.3415 0.522999H85.7065C85.7205 1.055 85.8955 1.475 86.2315 1.783C86.5815 2.091 87.0435 2.245 87.6175 2.245C88.1915 2.245 88.6535 2.091 89.0035 1.783C89.3535 1.475 89.5355 1.055 89.5495 0.522999H90.9565C90.9425 1.461 90.6415 2.182 90.0535 2.686C89.4655 3.176 88.6605 3.421 87.6385 3.421ZM107.502 16.126C106.368 16.126 105.353 15.881 104.457 15.391C103.575 14.901 102.882 14.229 102.378 13.375C101.874 12.521 101.622 11.541 101.622 10.435C101.622 9.329 101.874 8.349 102.378 7.495C102.882 6.641 103.575 5.976 104.457 5.5C105.353 5.01 106.368 4.765 107.502 4.765C108.51 4.765 109.406 4.968 110.19 5.374C110.988 5.766 111.604 6.354 112.038 7.138L110.505 8.125C110.141 7.579 109.693 7.18 109.161 6.928C108.643 6.662 108.083 6.529 107.481 6.529C106.753 6.529 106.102 6.69 105.528 7.012C104.954 7.334 104.499 7.789 104.163 8.377C103.827 8.951 103.659 9.637 103.659 10.435C103.659 11.233 103.827 11.926 104.163 12.514C104.499 13.102 104.954 13.557 105.528 13.879C106.102 14.201 106.753 14.362 107.481 14.362C108.083 14.362 108.643 14.236 109.161 13.984C109.693 13.718 110.141 13.312 110.505 12.766L112.038 13.732C111.604 14.502 110.988 15.097 110.19 15.517C109.406 15.923 108.51 16.126 107.502 16.126ZM115.072 20.2C114.54 20.2 114.022 20.109 113.518 19.927C113.014 19.759 112.58 19.507 112.216 19.171L113.077 17.659C113.357 17.925 113.665 18.128 114.001 18.268C114.337 18.408 114.694 18.478 115.072 18.478C115.562 18.478 115.968 18.352 116.29 18.1C116.612 17.848 116.913 17.4 117.193 16.756L117.886 15.223L118.096 14.971L122.464 4.87H124.438L119.041 17.113C118.719 17.897 118.355 18.513 117.949 18.961C117.557 19.409 117.123 19.724 116.647 19.906C116.171 20.102 115.646 20.2 115.072 20.2ZM117.718 16.357L112.636 4.87H114.736L119.062 14.782L117.718 16.357ZM126.502 16V4.87H128.518V9.595H134.86V4.87H136.876V16H134.86V11.338H128.518V16H126.502ZM148.398 15.055V6.634H143.568L143.463 8.776C143.435 9.476 143.386 10.155 143.316 10.813C143.26 11.457 143.162 12.052 143.022 12.598C142.896 13.144 142.707 13.592 142.455 13.942C142.203 14.292 141.867 14.509 141.447 14.593L139.452 14.236C139.886 14.25 140.236 14.11 140.502 13.816C140.768 13.508 140.971 13.088 141.111 12.556C141.265 12.024 141.377 11.422 141.447 10.75C141.517 10.064 141.573 9.357 141.615 8.629L141.783 4.87H150.414V15.055H148.398ZM139.011 18.583V14.236H152.115V18.583H150.225V16H140.922V18.583H139.011ZM155.308 20.2C154.776 20.2 154.258 20.109 153.754 19.927C153.25 19.759 152.816 19.507 152.452 19.171L153.313 17.659C153.593 17.925 153.901 18.128 154.237 18.268C154.573 18.408 154.93 18.478 155.308 18.478C155.798 18.478 156.204 18.352 156.526 18.1C156.848 17.848 157.149 17.4 157.429 16.756L158.122 15.223L158.332 14.971L162.7 4.87H164.674L159.277 17.113C158.955 17.897 158.591 18.513 158.185 18.961C157.793 19.409 157.359 19.724 156.883 19.906C156.407 20.102 155.882 20.2 155.308 20.2ZM157.954 16.357L152.872 4.87H154.972L159.298 14.782L157.954 16.357ZM174.802 16L170.497 10.582L172.156 9.574L177.175 16H174.802ZM166.738 16V4.87H168.754V16H166.738ZM168.145 11.296V9.574H171.82V11.296H168.145ZM172.324 10.666L170.455 10.414L174.718 4.87H176.881L172.324 10.666Z" fill="white"/>
</svg>
